<?xml version="1.0" encoding="UTF-8"?>
<svg width="18px" height="18px" viewBox="0 0 18 18" version="1.1" xmlns="http://www.w3.org/2000/svg" xmlns:xlink="http://www.w3.org/1999/xlink">
    <title>Icon / Category / Finances</title>
    <g id="23.11.2020-Exploration-Navigation-concepts" stroke="none" stroke-width="1" fill="none" fill-rule="evenodd">
        <g id="SnoopDrawer-Explore-2" transform="translate(-537.000000, -210.000000)">
            <g id="Category" transform="translate(530.000000, 203.000000)">
                <g id="cat_finances" transform="translate(0.000000, -0.000000)">
                    <path d="M32,16 C32,24.837 24.837,32 16,32 C7.164,32 0,24.837 0,16 C0,7.164 7.164,0 16,0 C24.837,0 32,7.164 32,16 Z" id="Stroke-73"></path>
                    <g id="Group-11" transform="translate(8.000000, 8.000000)" stroke="#4CAF50" stroke-linecap="round" stroke-linejoin="round" stroke-width="1.5">
                        <path d="M10.6666667,11.5555556 L5.33333333,11.5555556 C5.33333333,11.5555556 7.1103843,11.5555556 7.1103843,9.45000183 C7.1103843,8.23629754 6.37121832,6.73188564 6.45407468,5.65107626 C6.54565277,4.45190735 8.84818752,4.10409646 9.94385391,4.79971825" id="Stroke-113"></path>
                        <path d="M16,8 C16,12.4177778 12.4186667,16 8,16 C3.58222222,16 0,12.4177778 0,8 C0,3.58222222 3.58222222,0 8,0 C12.4186667,0 16,3.58222222 16,8 Z" id="Stroke-115"></path>
                        <line x1="5.55555556" y1="8" x2="8.55555556" y2="8" id="Stroke-114"></line>
                    </g>
                </g>
            </g>
        </g>
    </g>
</svg>